<svg width="18" height="18" viewBox="0 0 18 18" fill="none" xmlns="http://www.w3.org/2000/svg">
<path d="M12.612 0.666809C15.4485 0.666809 17.3337 2.6914 17.3337 5.59681V12.4035C17.3337 15.309 15.4483 17.3335 12.6112 17.3335H5.38783C2.55147 17.3335 0.666992 15.3091 0.666992 12.4035V5.59681C0.666992 2.69397 2.55651 0.666809 5.38783 0.666809H12.612ZM12.612 1.91681H5.38783C3.26727 1.91681 1.91699 3.36545 1.91699 5.59681V12.4035C1.91699 14.6379 3.26263 16.0835 5.38783 16.0835H12.6112C14.7373 16.0835 16.0837 14.6378 16.0837 12.4035V5.59681C16.0837 3.36261 14.7374 1.91681 12.612 1.91681ZM6.36691 6.83181C7.3471 6.83181 8.17549 7.48261 8.44381 8.37534L10.8053 8.37485C10.8095 8.37477 10.8138 8.37472 10.818 8.37472L10.8295 8.37514H13.1752C13.4917 8.37514 13.7532 8.61027 13.7945 8.91533L13.8002 9.00014V10.5435C13.8002 10.8887 13.5204 11.1685 13.1752 11.1685C12.8588 11.1685 12.5973 10.9333 12.5559 10.6283L12.5502 10.5435L12.55 9.62498L11.4428 9.62431L11.443 10.5431C11.443 10.8882 11.1632 11.1681 10.818 11.1681C10.5016 11.1681 10.2401 10.9329 10.1987 10.6279L10.193 10.5431L10.1928 9.62514L8.44357 9.62577C8.18761 10.4761 7.42341 11.1068 6.50403 11.1642L6.36691 11.1685C5.17012 11.1685 4.19941 10.197 4.19941 9.00014C4.19941 7.80324 5.17012 6.83181 6.36691 6.83181ZM6.36691 8.08181C5.86068 8.08181 5.44941 8.49339 5.44941 9.00014C5.44941 9.50689 5.86068 9.91848 6.36691 9.91848C6.87389 9.91848 7.28524 9.50697 7.28524 9.00014C7.28524 8.49331 6.87389 8.08181 6.36691 8.08181Z" fill="#9CA3AF"/>
</svg>
