<svg width="18" height="14" viewBox="0 0 18 14" fill="none" xmlns="http://www.w3.org/2000/svg">
<path fill-rule="evenodd" clip-rule="evenodd" d="M9.2405 0.337329L9.00199 0.333313C5.55122 0.333313 2.44138 2.76921 0.717755 6.75484C0.650071 6.91135 0.650071 7.08861 0.717755 7.24512L0.837191 7.51397C2.53898 11.2443 5.47986 13.5536 8.76016 13.6626L8.99866 13.6666C12.4494 13.6666 15.5593 11.2307 17.2829 7.24512C17.3514 7.08664 17.3505 6.90698 17.2804 6.74918L17.1644 6.48801C15.4584 2.75074 12.5163 0.446201 9.2405 0.337329ZM9.00783 1.5745L9.20695 1.57879L9.42946 1.59036C12.0938 1.77902 14.5441 3.75459 16.0245 6.99924L16.0168 7.01926C14.4993 10.3337 11.9644 12.321 9.21607 12.4208L9.00367 12.424L8.78944 12.4211L8.56751 12.4096C5.98593 12.2267 3.60565 10.362 2.11629 7.29974L1.97533 6.99924L2.10582 6.72181C3.67631 3.47761 6.24323 1.57521 9.00783 1.5745ZM8.99991 3.76121C7.19957 3.76121 5.74074 5.21093 5.74074 7.00016C5.74074 8.78871 7.19973 10.2383 8.99991 10.2383C10.8002 10.2383 12.2599 8.78861 12.2599 7.00016C12.2599 5.21103 10.8003 3.76121 8.99991 3.76121ZM8.99991 5.00313C10.11 5.00313 11.0099 5.89698 11.0099 7.00015C11.0099 8.10258 10.11 8.99634 8.99991 8.99634C7.89009 8.99634 6.99074 8.1028 6.99074 7.00015C6.99074 5.89676 7.88999 5.00313 8.99991 5.00313Z" fill="#9CA3AF"/>
</svg>
