<svg width="24" height="24" viewBox="0 0 24 24" fill="none" xmlns="http://www.w3.org/2000/svg">
<path d="M21.375 2.25H18.195C17.67 2.25 17.265 2.67 17.265 3.18C17.265 3.69 17.685 4.11 18.195 4.11H21.375V7.89C21.375 8.415 21.795 8.82 22.305 8.82C22.815 8.82 23.235 8.4 23.235 7.89V4.125C23.235 3.09 22.395 2.25 21.36 2.25H21.375ZM1.68 8.835C2.205 8.835 2.61 8.415 2.61 7.905V4.125H5.835C6.36 4.125 6.765 3.705 6.765 3.195C6.765 2.685 6.345 2.265 5.835 2.265H2.625C1.59 2.265 0.75 3.105 0.75 4.14V7.92C0.75 8.445 1.17 8.85 1.68 8.85V8.835ZM5.835 19.875H2.625V16.095C2.625 15.57 2.205 15.165 1.695 15.165C1.185 15.165 0.765 15.585 0.765 16.095V19.875C0.765 20.91 1.605 21.75 2.64 21.75H5.835C6.36 21.75 6.765 21.33 6.765 20.82C6.765 20.31 6.345 19.89 5.835 19.89V19.875ZM22.32 15.165C21.795 15.165 21.39 15.585 21.39 16.095V19.875H18.21C17.685 19.875 17.28 20.295 17.28 20.805C17.28 21.315 17.7 21.735 18.21 21.735H21.39C22.425 21.735 23.265 20.895 23.265 19.86V16.08C23.265 15.555 22.845 15.15 22.335 15.15L22.32 15.165Z" fill="#007BFF"/>
<path d="M9.17992 5.32495H6.04492C5.00992 5.32495 4.16992 6.16495 4.16992 7.19995V9.50995C4.16992 10.545 5.00992 11.385 6.04492 11.385H9.17992C10.2149 11.385 11.0549 10.545 11.0549 9.50995V7.19995C11.0549 6.16495 10.2149 5.32495 9.17992 5.32495ZM9.17992 9.50995H6.04492V7.19995H9.17992V9.50995ZM19.8299 16.8V14.49C19.8299 13.455 18.9899 12.615 17.9549 12.615H14.8199C13.7849 12.615 12.9449 13.455 12.9449 14.49V16.8C12.9449 17.835 13.7849 18.675 14.8199 18.675H17.9549C18.9899 18.675 19.8299 17.835 19.8299 16.8ZM14.8199 14.49H17.9549V16.8H14.8199V14.49ZM12.9449 8.77495H16.7249V10.65H12.9449V8.77495ZM12.9449 6.07495H19.8299V7.94995H12.9449V6.07495ZM7.27492 13.35H11.0549V15.225H7.27492V13.35ZM4.16992 16.05H11.0549V17.925H4.16992V16.05Z" fill="#007BFF"/>
</svg>
